<mxfile host="app.diagrams.net" agent="Mozilla/5.0 (Windows NT 10.0; Win64; x64) AppleWebKit/537.36 (KHTML, like Gecko) Chrome/137.0.0.0 Safari/537.36" version="27.1.5">
  <diagram name="Страница — 1" id="0OcWoN-dqkslLqCrjPa7">
    <mxGraphModel dx="1489" dy="900" grid="0" gridSize="10" guides="1" tooltips="1" connect="1" arrows="1" fold="1" page="1" pageScale="1" pageWidth="1654" pageHeight="2336" math="0" shadow="0">
      <root>
        <mxCell id="0" />
        <mxCell id="1" parent="0" />
        <mxCell id="JEtaIRDx-ScON8C0IwyU-1" value="Управление инсталляторами" style="html=1;dropTarget=0;whiteSpace=wrap;fontSize=15;" vertex="1" parent="1">
          <mxGeometry x="154" y="331" width="146" height="69" as="geometry" />
        </mxCell>
        <mxCell id="JEtaIRDx-ScON8C0IwyU-2" value="" style="shape=module;jettyWidth=8;jettyHeight=4;" vertex="1" parent="JEtaIRDx-ScON8C0IwyU-1">
          <mxGeometry x="1" width="20" height="20" relative="1" as="geometry">
            <mxPoint x="-27" y="7" as="offset" />
          </mxGeometry>
        </mxCell>
        <mxCell id="JEtaIRDx-ScON8C0IwyU-3" value="Веб-приложение учета и контроля заявок пользователей интернет-провайдера&amp;nbsp;" style="shape=umlFrame;whiteSpace=wrap;html=1;pointerEvents=0;width=295;height=39;" vertex="1" parent="1">
          <mxGeometry x="86" y="162" width="800" height="781" as="geometry" />
        </mxCell>
        <mxCell id="JEtaIRDx-ScON8C0IwyU-4" value="База данных" style="strokeWidth=2;html=1;shape=mxgraph.flowchart.database;whiteSpace=wrap;fontSize=12;" vertex="1" parent="1">
          <mxGeometry x="666" y="653" width="107" height="89.5" as="geometry" />
        </mxCell>
        <mxCell id="JEtaIRDx-ScON8C0IwyU-5" value="Chart.js" style="shape=folder;tabWidth=80;tabHeight=20;tabPosition=left;html=1;whiteSpace=wrap;align=center;fontSize=15;" vertex="1" parent="1">
          <mxGeometry x="664" y="306" width="109" height="66" as="geometry" />
        </mxCell>
        <mxCell id="JEtaIRDx-ScON8C0IwyU-6" value="Руководительская часть" style="shape=umlFrame;whiteSpace=wrap;html=1;pointerEvents=0;width=174;height=25;" vertex="1" parent="1">
          <mxGeometry x="135" y="235" width="379" height="208" as="geometry" />
        </mxCell>
        <mxCell id="JEtaIRDx-ScON8C0IwyU-7" value="Инсталляторская часть" style="shape=umlFrame;whiteSpace=wrap;html=1;pointerEvents=0;width=174;height=25;" vertex="1" parent="1">
          <mxGeometry x="135" y="494" width="379" height="182" as="geometry" />
        </mxCell>
        <mxCell id="JEtaIRDx-ScON8C0IwyU-8" value="Диспетчерская часть" style="shape=umlFrame;whiteSpace=wrap;html=1;pointerEvents=0;width=174;height=25;" vertex="1" parent="1">
          <mxGeometry x="135" y="740" width="379" height="151" as="geometry" />
        </mxCell>
        <mxCell id="JEtaIRDx-ScON8C0IwyU-9" value="MS Excel" style="html=1;dropTarget=0;whiteSpace=wrap;fontSize=15;" vertex="1" parent="1">
          <mxGeometry x="656.5" y="478" width="124" height="69" as="geometry" />
        </mxCell>
        <mxCell id="JEtaIRDx-ScON8C0IwyU-10" value="" style="shape=module;jettyWidth=8;jettyHeight=4;" vertex="1" parent="JEtaIRDx-ScON8C0IwyU-9">
          <mxGeometry x="1" width="20" height="20" relative="1" as="geometry">
            <mxPoint x="-27" y="7" as="offset" />
          </mxGeometry>
        </mxCell>
        <mxCell id="JEtaIRDx-ScON8C0IwyU-11" value="Управление заявками" style="html=1;dropTarget=0;whiteSpace=wrap;fontSize=15;" vertex="1" parent="1">
          <mxGeometry x="154" y="797" width="146" height="69" as="geometry" />
        </mxCell>
        <mxCell id="JEtaIRDx-ScON8C0IwyU-12" value="" style="shape=module;jettyWidth=8;jettyHeight=4;" vertex="1" parent="JEtaIRDx-ScON8C0IwyU-11">
          <mxGeometry x="1" width="20" height="20" relative="1" as="geometry">
            <mxPoint x="-27" y="7" as="offset" />
          </mxGeometry>
        </mxCell>
        <mxCell id="JEtaIRDx-ScON8C0IwyU-13" value="Статистика" style="html=1;dropTarget=0;whiteSpace=wrap;fontSize=15;" vertex="1" parent="1">
          <mxGeometry x="345" y="331" width="146" height="69" as="geometry" />
        </mxCell>
        <mxCell id="JEtaIRDx-ScON8C0IwyU-14" value="" style="shape=module;jettyWidth=8;jettyHeight=4;" vertex="1" parent="JEtaIRDx-ScON8C0IwyU-13">
          <mxGeometry x="1" width="20" height="20" relative="1" as="geometry">
            <mxPoint x="-27" y="7" as="offset" />
          </mxGeometry>
        </mxCell>
        <mxCell id="JEtaIRDx-ScON8C0IwyU-15" value="Список заявок" style="html=1;dropTarget=0;whiteSpace=wrap;fontSize=15;" vertex="1" parent="1">
          <mxGeometry x="154" y="566" width="146" height="69" as="geometry" />
        </mxCell>
        <mxCell id="JEtaIRDx-ScON8C0IwyU-16" value="" style="shape=module;jettyWidth=8;jettyHeight=4;" vertex="1" parent="JEtaIRDx-ScON8C0IwyU-15">
          <mxGeometry x="1" width="20" height="20" relative="1" as="geometry">
            <mxPoint x="-27" y="7" as="offset" />
          </mxGeometry>
        </mxCell>
        <mxCell id="JEtaIRDx-ScON8C0IwyU-17" value="Список тарифов" style="html=1;dropTarget=0;whiteSpace=wrap;fontSize=15;" vertex="1" parent="1">
          <mxGeometry x="345" y="797" width="146" height="69" as="geometry" />
        </mxCell>
        <mxCell id="JEtaIRDx-ScON8C0IwyU-18" value="" style="shape=module;jettyWidth=8;jettyHeight=4;" vertex="1" parent="JEtaIRDx-ScON8C0IwyU-17">
          <mxGeometry x="1" width="20" height="20" relative="1" as="geometry">
            <mxPoint x="-27" y="7" as="offset" />
          </mxGeometry>
        </mxCell>
        <mxCell id="JEtaIRDx-ScON8C0IwyU-19" value="Входящие сообщения" style="html=1;dropTarget=0;whiteSpace=wrap;fontSize=15;" vertex="1" parent="1">
          <mxGeometry x="345" y="566" width="146" height="69" as="geometry" />
        </mxCell>
        <mxCell id="JEtaIRDx-ScON8C0IwyU-20" value="" style="shape=module;jettyWidth=8;jettyHeight=4;" vertex="1" parent="JEtaIRDx-ScON8C0IwyU-19">
          <mxGeometry x="1" width="20" height="20" relative="1" as="geometry">
            <mxPoint x="-27" y="7" as="offset" />
          </mxGeometry>
        </mxCell>
        <mxCell id="JEtaIRDx-ScON8C0IwyU-21" value="Запрос данных" style="endArrow=classic;html=1;rounded=0;exitX=1;exitY=0.25;exitDx=0;exitDy=0;entryX=0.196;entryY=0.985;entryDx=0;entryDy=0;entryPerimeter=0;fontSize=14;" edge="1" parent="1" source="JEtaIRDx-ScON8C0IwyU-17" target="JEtaIRDx-ScON8C0IwyU-4">
          <mxGeometry width="50" height="50" relative="1" as="geometry">
            <mxPoint x="549" y="832" as="sourcePoint" />
            <mxPoint x="599" y="782" as="targetPoint" />
          </mxGeometry>
        </mxCell>
        <mxCell id="JEtaIRDx-ScON8C0IwyU-22" value="Редактирование" style="endArrow=classic;html=1;rounded=0;exitX=1;exitY=0;exitDx=0;exitDy=0;entryX=0;entryY=0.85;entryDx=0;entryDy=0;entryPerimeter=0;fontSize=14;" edge="1" parent="1" source="JEtaIRDx-ScON8C0IwyU-11" target="JEtaIRDx-ScON8C0IwyU-4">
          <mxGeometry width="50" height="50" relative="1" as="geometry">
            <mxPoint x="320" y="785" as="sourcePoint" />
            <mxPoint x="516" y="712" as="targetPoint" />
          </mxGeometry>
        </mxCell>
        <mxCell id="JEtaIRDx-ScON8C0IwyU-23" value="Запрос данных" style="endArrow=classic;html=1;rounded=0;exitX=0.91;exitY=0.998;exitDx=0;exitDy=0;entryX=0;entryY=0.5;entryDx=0;entryDy=0;entryPerimeter=0;fontSize=14;exitPerimeter=0;" edge="1" parent="1" source="JEtaIRDx-ScON8C0IwyU-19" target="JEtaIRDx-ScON8C0IwyU-4">
          <mxGeometry width="50" height="50" relative="1" as="geometry">
            <mxPoint x="498" y="653" as="sourcePoint" />
            <mxPoint x="694" y="580" as="targetPoint" />
          </mxGeometry>
        </mxCell>
        <mxCell id="JEtaIRDx-ScON8C0IwyU-24" value="Запрос данных" style="endArrow=classic;html=1;rounded=0;exitX=1;exitY=1;exitDx=0;exitDy=0;entryX=0.004;entryY=0.691;entryDx=0;entryDy=0;entryPerimeter=0;fontSize=14;labelPosition=left;verticalLabelPosition=middle;align=right;verticalAlign=middle;" edge="1" parent="1" source="JEtaIRDx-ScON8C0IwyU-15" target="JEtaIRDx-ScON8C0IwyU-4">
          <mxGeometry width="50" height="50" relative="1" as="geometry">
            <mxPoint x="588" y="802" as="sourcePoint" />
            <mxPoint x="784" y="729" as="targetPoint" />
          </mxGeometry>
        </mxCell>
        <mxCell id="JEtaIRDx-ScON8C0IwyU-25" value="Редактирование" style="endArrow=classic;html=1;rounded=0;exitX=1;exitY=1;exitDx=0;exitDy=0;entryX=0;entryY=0.15;entryDx=0;entryDy=0;entryPerimeter=0;fontSize=14;" edge="1" parent="1" source="JEtaIRDx-ScON8C0IwyU-1" target="JEtaIRDx-ScON8C0IwyU-4">
          <mxGeometry width="50" height="50" relative="1" as="geometry">
            <mxPoint x="706" y="581" as="sourcePoint" />
            <mxPoint x="894" y="644" as="targetPoint" />
          </mxGeometry>
        </mxCell>
        <mxCell id="JEtaIRDx-ScON8C0IwyU-26" value="Формирование&lt;div&gt;диаграмм&lt;/div&gt;" style="endArrow=classic;html=1;rounded=0;exitX=1;exitY=0.25;exitDx=0;exitDy=0;entryX=0;entryY=0;entryDx=0;entryDy=43;entryPerimeter=0;fontSize=14;" edge="1" parent="1" source="JEtaIRDx-ScON8C0IwyU-13" target="JEtaIRDx-ScON8C0IwyU-5">
          <mxGeometry width="50" height="50" relative="1" as="geometry">
            <mxPoint x="528" y="316" as="sourcePoint" />
            <mxPoint x="724" y="243" as="targetPoint" />
          </mxGeometry>
        </mxCell>
        <mxCell id="JEtaIRDx-ScON8C0IwyU-27" value="Импорт данных" style="endArrow=classic;html=1;rounded=0;exitX=1;exitY=0.75;exitDx=0;exitDy=0;entryX=0;entryY=0.25;entryDx=0;entryDy=0;fontSize=14;" edge="1" parent="1" source="JEtaIRDx-ScON8C0IwyU-13" target="JEtaIRDx-ScON8C0IwyU-9">
          <mxGeometry width="50" height="50" relative="1" as="geometry">
            <mxPoint x="599" y="462" as="sourcePoint" />
            <mxPoint x="795" y="389" as="targetPoint" />
          </mxGeometry>
        </mxCell>
      </root>
    </mxGraphModel>
  </diagram>
</mxfile>
